<svg fill="none" height="24" viewBox="0 0 24 24" width="24" xmlns="http://www.w3.org/2000/svg"><g stroke="#0f172a" stroke-linecap="round" stroke-linejoin="round" stroke-width="1.5"><path d="m5.5 16c5 2.5 8 2.5 13 0m-3 1.5 1 2s4.171-1.328 5.5-3.5c0-1 .53-8.147-3-10.5-1.5-1-4-1.5-4-1.5l-1 2h-2"/><path d="m8.52802 17.5-1 2s-4.171-1.328-5.5-3.5c0-1-.53-8.147 3-10.5 1.5-1 4-1.5 4-1.5l.99998 2h2"/><path d="m8.5 14c-.828 0-1.5-.895-1.5-2s.672-2 1.5-2 1.5.895 1.5 2-.672 2-1.5 2zm7 0c-.828 0-1.5-.895-1.5-2s.672-2 1.5-2 1.5.895 1.5 2-.672 2-1.5 2z"/></g></svg>