<svg fill="none" height="24" viewBox="0 0 24 24" width="24" xmlns="http://www.w3.org/2000/svg"><path d="m16 22.027v-2.87c.0375-.4768-.0269-.9562-.189-1.4062s-.4181-.8604-.751-1.2038c3.14-.35 6.44-1.54 6.44-6.99999-.0003-1.39618-.5373-2.7388-1.5-3.75.4559-1.2215.4236-2.57165-.09-3.77 0 0-1.18-.35-3.91 1.48-2.292-.62118-4.708-.62118-7 0-2.73-1.83-3.91-1.48-3.91-1.48-.51362 1.19835-.54586 2.5485-.09 3.77-.96987 1.0187-1.50748 2.37346-1.5 3.78 0 5.41999 3.3 6.60999 6.44 6.99999-.329.34-.58274.7454-.74469 1.1899-.16196.4445-.2285.9182-.19531 1.3901v2.87m0-2c-3 .973-5.5 0-7-3" stroke="#0f172a" stroke-linecap="round" stroke-linejoin="round" stroke-width="1.5"/></svg>