<svg fill="none" height="24" viewBox="0 0 24 24" width="24" xmlns="http://www.w3.org/2000/svg"><path d="m7 16c1.06087 0 2.07828-.4214 2.82843-1.1716.75017-.7501 1.17157-1.7675 1.17157-2.8284s-.4214-2.07828-1.17157-2.82843c-.75015-.75014-1.76756-1.17157-2.82843-1.17157s-2.07828.42143-2.82843 1.17157c-.75014.75015-1.17157 1.76753-1.17157 2.82843s.42143 2.0783 1.17157 2.8284c.75015.7502 1.76756 1.1716 2.82843 1.1716zm8 0c1.105 0 2-1.79 2-4s-.895-4-2-4-2 1.79-2 4 .895 4 2 4zm5 0c.552 0 1-1.79 1-4s-.448-4-1-4-1 1.79-1 4 .448 4 1 4z" stroke="#0f172a" stroke-linecap="round" stroke-linejoin="round" stroke-width="1.5"/></svg>