<svg fill="none" height="24" viewBox="0 0 24 24" width="24" xmlns="http://www.w3.org/2000/svg"><g stroke="#0f172a" stroke-linecap="round" stroke-linejoin="round" stroke-width="1.5"><path d="m21 8v8c0 1.3261-.5268 2.5979-1.4645 3.5355-.9376.9377-2.2094 1.4645-3.5355 1.4645h-8c-1.32608 0-2.59785-.5268-3.53553-1.4645-.93769-.9376-1.46447-2.2094-1.46447-3.5355v-8c0-1.32608.52678-2.59785 1.46447-3.53553.93768-.93769 2.20945-1.46447 3.53553-1.46447h8c1.3261 0 2.5979.52678 3.5355 1.46447.9377.93768 1.4645 2.20945 1.4645 3.53553z"/><path d="m10 12c-.59334 0-1.17336.1759-1.66671.5056-.49335.3296-.87786.7982-1.10493 1.3463-.22706.5482-.28647 1.1514-.17071 1.7334.11575.5819.40147 1.1165.82103 1.536.41956.4196.95411.7053 1.53605.8211.58194.1157 1.18517.0563 1.73337-.1708.5481-.227 1.0167-.6115 1.3463-1.1049.3297-.4933.5056-1.0734.5056-1.6667v-9c.333 1 1.6 3 4 3"/></g></svg>