<svg fill="none" height="24" viewBox="0 0 24 24" width="24" xmlns="http://www.w3.org/2000/svg"><path d="m23 3.01s-2.018 1.192-3.14 1.53c-.6023-.69249-1.4027-1.18331-2.293-1.40607-.8903-.22277-1.8275-.16673-2.6849.16052-.8574.32726-1.5937.90995-2.1091 1.66927-.5155.75931-.7853 1.65862-.773 2.57628v1c-1.7574.04557-3.49873-.34419-5.06899-1.13455-1.57027-.79037-2.92069-1.95681-3.93101-3.39545 0 0-4 9 5 13-2.05947 1.398-4.51284 2.0989-7 2 9 5 20 0 20-11.5 0-.278-.028-.556-.08-.83 1.02-1.006 2.08-3.67 2.08-3.67z" stroke="#0f172a" stroke-linecap="round" stroke-linejoin="round" stroke-width="1.5"/></svg>