<svg width="24" height="24" viewBox="0 0 24 24" fill="none" xmlns="http://www.w3.org/2000/svg">
<path d="M14.5941 7.5H17.25C18.4435 7.5 19.5881 7.97411 20.432 8.81802C21.2759 9.66193 21.75 10.8065 21.75 12C21.75 13.1935 21.2759 14.3381 20.432 15.182C19.5881 16.0259 18.4435 16.5 17.25 16.5H14.6527" stroke="white" stroke-width="2.25" stroke-linecap="round" stroke-linejoin="round"/>
<path d="M9.34735 16.5H6.75001C5.55653 16.5 4.41194 16.0259 3.56803 15.182C2.72411 14.3381 2.25001 13.1935 2.25001 12C2.25001 10.8065 2.72411 9.66193 3.56803 8.81802C4.41194 7.97411 5.55653 7.5 6.75001 7.5H9.40594" stroke="white" stroke-width="2.25" stroke-linecap="round" stroke-linejoin="round"/>
<path d="M16.0749 12H7.83142" stroke="white" stroke-width="2.25" stroke-linecap="round" stroke-linejoin="round"/>
</svg>
