<svg width="1728" height="1117" fill="none" xmlns="http://www.w3.org/2000/svg"><g clip-path="url(#a)"><path fill="#fff" d="M0 0h1728v1117H0z"/><g filter="url(#b)"><path fill-rule="evenodd" clip-rule="evenodd" d="M771.766 348.466C855.554 176.821 1060.93 183.3 1198.78 67.616c182.33-153.019 303.54-500.346 503.89-500.39 193.85-.042 169.41 361.753 301.8 500.214 160.78 168.14 577.64 99.911 544.24 384.573-35.54 302.984-451.18 352.509-657.35 579.517-118.69 130.7-160.19 319.72-278.49 450.96-169.82 188.4-338.46 437.11-549.33 467.45-218.5 31.43-462.571-80.99-517.104-314.04-56.35-240.81 216.141-502.3 263.183-771.077 32.248-184.252-121.938-344.105-37.853-516.357Z" fill="url(#c)"/><mask id="d" style="mask-type:alpha" maskUnits="userSpaceOnUse" x="538" y="-433" width="2013" height="2389"><path fill-rule="evenodd" clip-rule="evenodd" d="M771.766 348.466C855.554 176.821 1060.93 183.3 1198.78 67.616c182.33-153.019 303.54-500.346 503.89-500.39 193.85-.042 169.41 361.753 301.8 500.214 160.78 168.14 577.64 99.911 544.24 384.573-35.54 302.984-451.18 352.509-657.35 579.517-118.69 130.7-160.19 319.72-278.49 450.96-169.82 188.4-338.46 437.11-549.33 467.45-218.5 31.43-462.571-80.99-517.104-314.04-56.35-240.81 216.141-502.3 263.183-771.077 32.248-184.252-121.938-344.105-37.853-516.357Z" fill="#C2A8F0"/></mask><g filter="url(#e)" mask="url(#d)"><path d="M999.52 1622.89c-159.646 95.43-221.131 327.56-231.918 431.69C1679.09 2100.03 2542.04 1009.43 2606.77 668.622c62.4-328.623 91.68-738.423-560.92-658.9-522.09 63.617-417.09 331.343-302.03 494.175-57.53 168.512-228.69 505.533-453.05 505.533-938.463-142.002-938.463 391.93-873.741 363.53 64.721-28.4 782.051 130.65 582.491 249.93Z" fill="url(#f)"/></g><mask id="g" style="mask-type:alpha" maskUnits="userSpaceOnUse" x="538" y="-433" width="2013" height="2389"><path fill-rule="evenodd" clip-rule="evenodd" d="M771.766 348.466C855.554 176.821 1060.93 183.3 1198.78 67.616c182.33-153.019 303.54-500.346 503.89-500.39 193.85-.042 169.41 361.753 301.8 500.214 160.78 168.14 577.64 99.911 544.24 384.573-35.54 302.984-451.18 352.509-657.35 579.517-118.69 130.7-160.19 319.72-278.49 450.96-169.82 188.4-338.46 437.11-549.33 467.45-218.5 31.43-462.571-80.99-517.104-314.04-56.35-240.81 216.141-502.3 263.183-771.077 32.248-184.252-121.938-344.105-37.853-516.357Z" fill="#000"/></mask><g filter="url(#h)" mask="url(#g)"><path d="M1293.83 1407.1c-121.12 92.62-317.053 583.22-399.881 816.94-100.746 420.64 512.091-151.2 689.011-256.74 176.91-105.54 767.9-1494.173 823.32-1611.221 55.41-117.047-351.77-600.926-633.71-736.815-225.55-108.712-327.11 130.145-349.69 263.163 157.76 115.302 447.15 367.839 342.59 455.57-104.57 87.731-244.15 360.322-300.87 485.651-6.46 155.895-49.65 490.842-170.77 583.452Z" fill="url(#i)"/></g></g><g filter="url(#j)"><path fill-rule="evenodd" clip-rule="evenodd" d="M-45.317 618.026c34.669-136.514 118.991-259.878 237.161-339.378 101.401-68.219 250.85 5.227 354.946-58.97 189.133-116.64 245.004-428.232 467.6-448.298 205.48-18.524 438.21 164.216 478.32 363.025 42.21 209.257-204.63 358.579-293.54 552.957-47.17 103.133-31.08 227.03-103.44 314.948-72.55 88.14-184.514 125.82-292.462 166.06-121.541 45.31-241.974 94.41-371.432 81.45-161.465-16.17-348.45-35.12-445.184-163.2-97.443-129.026-71.488-312.983-31.969-468.594Z" fill="url(#k)"/><mask id="l" style="mask-type:alpha" maskUnits="userSpaceOnUse" x="-81" y="-230" width="1579" height="1482"><path fill-rule="evenodd" clip-rule="evenodd" d="M-45.317 618.026c34.669-136.514 118.991-259.878 237.161-339.378 101.401-68.219 250.85 5.227 354.946-58.97 189.133-116.64 245.004-428.232 467.6-448.298 205.48-18.524 438.21 164.216 478.32 363.025 42.21 209.257-204.63 358.579-293.54 552.957-47.17 103.133-31.08 227.03-103.44 314.948-72.55 88.14-184.514 125.82-292.462 166.06-121.541 45.31-241.974 94.41-371.432 81.45-161.465-16.17-348.45-35.12-445.184-163.2-97.443-129.026-71.488-312.983-31.969-468.594Z" fill="#000"/></mask><g filter="url(#m)" mask="url(#l)"><path d="M593.942 815.319c-62.216 6.913-370.988-506.94-663.63-396.335C-452.195 916.707-350.794 1425.98 497.164 1488.17c691.277 50.69 957.037-225.82 1184.397-589.897-7.68-288.802 169.59-876.544-165.91-953.968-419.38-96.779-804.191 473.527-811.103 502.331-12.262 51.094-17.282 344.488-110.605 368.683Z" fill="url(#n)"/></g><mask id="o" style="mask-type:alpha" maskUnits="userSpaceOnUse" x="-81" y="-230" width="1579" height="1482"><path fill-rule="evenodd" clip-rule="evenodd" d="M-45.317 618.026c34.669-136.514 118.991-259.878 237.161-339.378 101.401-68.219 250.85 5.227 354.946-58.97 189.133-116.64 245.004-428.232 467.6-448.298 205.48-18.524 438.21 164.216 478.32 363.025 42.21 209.257-204.63 358.579-293.54 552.957-47.17 103.133-31.08 227.03-103.44 314.948-72.55 88.14-184.514 125.82-292.462 166.06-121.541 45.31-241.974 94.41-371.432 81.45-161.465-16.17-348.45-35.12-445.184-163.2-97.443-129.026-71.488-312.983-31.969-468.594Z" fill="#000"/></mask><g filter="url(#p)" mask="url(#o)"><path d="M192.04 994.582c-360.655-239.131-569.011-143.921-628.107-66.425C-5.51 2057.38 1478.65 1269.77 1610.35 1231.81c131.69-37.95 476.14-1380.69 0-1224.116-476.15 156.573-341.92 583.592-635.71 865.899-63.317 75.915-210.213 358.217-782.6 120.989Z" fill="url(#q)"/></g></g><g filter="url(#r)"><path fill-rule="evenodd" clip-rule="evenodd" d="M326.42 1197.39c208.272-66.63 146.392-392.057 278.679-566.176 131.52-173.108 430.131-203.286 468.501-417.277 43.35-241.766-51.32-554.896-276.682-652.589C573.813-535.369 366.3-280.809 140.499-190.565 3.897-135.97-152.376-132.064-248.605-20.795-350.159 96.63-381.865 253.12-377.424 408.306c5.072 177.243 37.022 355.319 155.052 487.643C-77.947 1057.86 119.77 1263.51 326.42 1197.39Z" fill="url(#s)"/><mask id="t" style="mask-type:alpha" maskUnits="userSpaceOnUse" x="-378" y="-461" width="1462" height="1672"><path fill-rule="evenodd" clip-rule="evenodd" d="M326.42 1197.39c208.272-66.63 146.392-392.057 278.679-566.176 131.52-173.108 430.131-203.286 468.501-417.277 43.35-241.766-51.32-554.896-276.682-652.589C573.813-535.369 366.3-280.809 140.499-190.565 3.897-135.97-152.376-132.064-248.605-20.795-350.159 96.63-381.865 253.12-377.424 408.306c5.072 177.243 37.022 355.319 155.052 487.643C-77.947 1057.86 119.77 1263.51 326.42 1197.39Z" fill="#000"/></mask><g filter="url(#u)" mask="url(#t)"><path d="M74.33 659.781c-188.029 132.726-78.346 506.939 0 677.459 1106.05 152.08 1811.16-1668.295 995.44-1654.47-652.566 11.061-569.919 370.22-447.025 548.417C430.723 169.739 31.931 72.653-27.059 175.884c-58.99 103.231 245.789 258.078 405.552 322.598-23.043-1.536-116.135 28.573-304.164 161.299Z" fill="url(#v)"/></g><mask id="w" style="mask-type:alpha" maskUnits="userSpaceOnUse" x="-378" y="-461" width="1462" height="1672"><path fill-rule="evenodd" clip-rule="evenodd" d="M326.42 1197.39c208.272-66.63 146.393-392.057 278.679-566.176 131.52-173.108 430.131-203.286 468.501-417.277 43.35-241.766-51.32-554.896-276.682-652.589C573.813-535.369 366.3-280.809 140.499-190.565 3.897-135.97-152.376-132.064-248.605-20.795-350.159 96.63-381.865 253.12-377.424 408.306c5.072 177.243 37.022 355.319 155.052 487.643C-77.947 1057.86 119.77 1263.51 326.42 1197.39Z" fill="#000"/></mask><g filter="url(#x)" mask="url(#w)"><path d="M337.329 533.688C202.128 631.387 110.178 1053.84 81.102 1252.86-10.137 1659.94 844.33 859.35 1204.14 420.611c287.84-350.99 103.58-825.462-136.29-1004.124-286.214-194.492-499.373-246.055-556.069 0C615.362-13.604 844.33 74.596 844.33 226.119c0 68.893-338.001 185.446-507.001 307.569Z" fill="url(#y)"/></g></g></g><defs><linearGradient id="c" x1="1139.75" y1="-137.963" x2="2413.51" y2="507.493" gradientUnits="userSpaceOnUse"><stop stop-color="#010241"/><stop offset=".547" stop-color="#0117DE"/><stop offset="1" stop-color="#071A91"/></linearGradient><linearGradient id="f" x1="1625.16" y1="-.219" x2="1466.75" y2="1037.78" gradientUnits="userSpaceOnUse"><stop stop-color="#112296"/><stop offset="1" stop-color="#1732DB"/></linearGradient><linearGradient id="i" x1="1277.5" y1="989.939" x2="1708.46" y2="1238.44" gradientUnits="userSpaceOnUse"><stop stop-color="#1E3AE3"/><stop offset=".518" stop-color="#887BD7"/><stop offset="1" stop-color="#DEDAF3"/></linearGradient><linearGradient id="k" x1="534.031" y1="220.817" x2="1289.45" y2="957.768" gradientUnits="userSpaceOnUse"><stop stop-color="#010241"/><stop offset=".418" stop-color="#0117DE"/><stop offset="1" stop-color="#071A91"/></linearGradient><linearGradient id="n" x1="630.81" y1="-106.389" x2="428.716" y2="932.695" gradientUnits="userSpaceOnUse"><stop stop-color="#112296"/><stop offset="1" stop-color="#1732DB"/></linearGradient><linearGradient id="q" x1="916.388" y1="572.308" x2="1127.68" y2="1234.77" gradientUnits="userSpaceOnUse"><stop stop-color="#1E3AE3"/><stop offset=".518" stop-color="#887BD7"/><stop offset="1" stop-color="#DEDAF3"/></linearGradient><linearGradient id="s" x1="-8.625" y1="-238.884" x2="917.692" y2="645.955" gradientUnits="userSpaceOnUse"><stop stop-color="#010241"/><stop offset=".547" stop-color="#0117DE"/><stop offset="1" stop-color="#071A91"/></linearGradient><linearGradient id="v" x1="-8.625" y1="148.233" x2="567.443" y2="514.612" gradientUnits="userSpaceOnUse"><stop stop-color="#112296"/><stop offset="1" stop-color="#1732DB"/></linearGradient><linearGradient id="y" x1="598.756" y1="307.803" x2="1024.6" y2="697.029" gradientUnits="userSpaceOnUse"><stop stop-color="#1E3AE3"/><stop offset=".518" stop-color="#887BD7"/><stop offset="1" stop-color="#DEDAF3"/></linearGradient><filter id="b" x="504.237" y="-467.338" width="2080.94" height="2457.02" filterUnits="userSpaceOnUse" color-interpolation-filters="sRGB"><feFlood flood-opacity="0" result="BackgroundImageFix"/><feBlend in="SourceGraphic" in2="BackgroundImageFix" result="shape"/><feGaussianBlur stdDeviation="17.282" result="effect1_foregroundBlur_119_2235"/></filter><filter id="e" x="254.649" y="-138.558" width="2520.94" height="2332.78" filterUnits="userSpaceOnUse" color-interpolation-filters="sRGB"><feFlood flood-opacity="0" result="BackgroundImageFix"/><feBlend in="SourceGraphic" in2="BackgroundImageFix" result="shape"/><feGaussianBlur stdDeviation="69.128" result="effect1_foregroundBlur_119_2235"/></filter><filter id="h" x="733.06" y="-558.087" width="1828.11" height="3084.38" filterUnits="userSpaceOnUse" color-interpolation-filters="sRGB"><feFlood flood-opacity="0" result="BackgroundImageFix"/><feBlend in="SourceGraphic" in2="BackgroundImageFix" result="shape"/><feGaussianBlur stdDeviation="74.889" result="effect1_foregroundBlur_119_2235"/></filter><filter id="j" x="-121.043" y="-270.242" width="1658.89" height="1562.5" filterUnits="userSpaceOnUse" color-interpolation-filters="sRGB"><feFlood flood-opacity="0" result="BackgroundImageFix"/><feBlend in="SourceGraphic" in2="BackgroundImageFix" result="shape"/><feGaussianBlur stdDeviation="20.162" result="effect1_foregroundBlur_119_2235"/></filter><filter id="m" x="-420.655" y="-204.995" width="2280.48" height="1837.42" filterUnits="userSpaceOnUse" color-interpolation-filters="sRGB"><feFlood flood-opacity="0" result="BackgroundImageFix"/><feBlend in="SourceGraphic" in2="BackgroundImageFix" result="shape"/><feGaussianBlur stdDeviation="69.128" result="effect1_foregroundBlur_119_2235"/></filter><filter id="p" x="-585.844" y="-154.779" width="2590" height="1838.81" filterUnits="userSpaceOnUse" color-interpolation-filters="sRGB"><feFlood flood-opacity="0" result="BackgroundImageFix"/><feBlend in="SourceGraphic" in2="BackgroundImageFix" result="shape"/><feGaussianBlur stdDeviation="74.889" result="effect1_foregroundBlur_119_2235"/></filter><filter id="r" x="-423.911" y="-506.312" width="1553.84" height="1762.49" filterUnits="userSpaceOnUse" color-interpolation-filters="sRGB"><feFlood flood-opacity="0" result="BackgroundImageFix"/><feBlend in="SourceGraphic" in2="BackgroundImageFix" result="shape"/><feGaussianBlur stdDeviation="23.043" result="effect1_foregroundBlur_119_2235"/></filter><filter id="u" x="-264.957" y="-547.735" width="1918.92" height="2124.42" filterUnits="userSpaceOnUse" color-interpolation-filters="sRGB"><feFlood flood-opacity="0" result="BackgroundImageFix"/><feBlend in="SourceGraphic" in2="BackgroundImageFix" result="shape"/><feGaussianBlur stdDeviation="115.213" result="effect1_foregroundBlur_119_2235"/></filter><filter id="x" x="-98.491" y="-922.101" width="1622.21" height="2459.81" filterUnits="userSpaceOnUse" color-interpolation-filters="sRGB"><feFlood flood-opacity="0" result="BackgroundImageFix"/><feBlend in="SourceGraphic" in2="BackgroundImageFix" result="shape"/><feGaussianBlur stdDeviation="86.41" result="effect1_foregroundBlur_119_2235"/></filter><clipPath id="a"><path fill="#fff" d="M0 0h1728v1117H0z"/></clipPath></defs></svg>