<svg fill="none" height="24" viewBox="0 0 24 24" width="24" xmlns="http://www.w3.org/2000/svg"><g stroke="#0f172a" stroke-width="1.5"><path d="m14 12-3.5 2v-4z" fill="#0f172a" stroke-linecap="round" stroke-linejoin="round"/><path d="m2 12.707v-1.415c0-2.89501 0-4.34301.905-5.27401.906-.932 2.332-.972 5.183-1.053 1.35-.038 2.73-.065 3.912-.065 1.181 0 2.561.027 3.912.065 2.851.081 4.277.121 5.182 1.053.906.931.906 2.38.906 5.27401v1.415c0 2.896 0 4.343-.905 5.275-.906.931-2.331.972-5.183 1.052-1.35.039-2.73.066-3.912.066-1.181 0-2.561-.027-3.912-.066-2.851-.08-4.277-.12-5.183-1.052-.905-.932-.905-2.38-.905-5.274z"/></g></svg>